<svg xmlns="http://www.w3.org/2000/svg" viewBox="0 0 162.83 162.83"><defs><style>.cls-1{fill:#a08868;}</style></defs><title>embone</title><g id="Layer_2" data-name="Layer 2"><g id="OBJECTS"><path class="cls-1" d="M81.42,162.83a.38.38,0,0,1-.38-.37V.38a.38.38,0,1,1,.75,0V162.46A.38.38,0,0,1,81.42,162.83Z"/><path class="cls-1" d="M162.46,81.79H.38a.38.38,0,1,1,0-.75H162.46a.38.38,0,0,1,0,.75Z"/><path class="cls-1" d="M81.42,81.79a.38.38,0,0,1-.25-.09.37.37,0,0,1,0-.53c.24-.28,25.2-27.6,52.74-7.51a.36.36,0,0,1,.08.52.38.38,0,0,1-.52.08c-27-19.69-51.5,7.13-51.74,7.41A.39.39,0,0,1,81.42,81.79Z"/><path class="cls-1" d="M103.69,68.18a.37.37,0,0,1-.34-.24.36.36,0,0,1,.2-.48c17.49-7.17,22-28.7,22.9-35.13a53.38,53.38,0,0,0,.67-7.1.38.38,0,1,1,.75,0,53.36,53.36,0,0,1-.68,7.21c-1,6.53-5.5,28.4-23.35,35.71A.4.4,0,0,1,103.69,68.18Z"/><path class="cls-1" d="M86.39,77.24a.37.37,0,0,1-.29-.14.38.38,0,0,1,.05-.53c8-6.63,16.14-28,14.18-43.51a48.81,48.81,0,0,0-11-24.63A.38.38,0,0,1,89.89,8a49.59,49.59,0,0,1,11.18,25c1.87,14.73-5.29,36.62-14.44,44.19A.38.38,0,0,1,86.39,77.24Z"/><path class="cls-1" d="M137.76,77.36a16.61,16.61,0,0,1-15.14-9l-.19-.44.47-.08c.13,0,12.88-2.06,17.44,8.91l.19.46-.5.06A22.3,22.3,0,0,1,137.76,77.36Zm-14.23-8.87c1,1.9,5.44,8.89,15.91,8.05C135.48,67.82,125.85,68.25,123.53,68.49Z"/><path class="cls-1" d="M118.27,78.82a16.61,16.61,0,0,1-15.14-9l-.2-.44.48-.08c.12,0,12.87-2,17.44,8.91l.19.46-.5.06A22.45,22.45,0,0,1,118.27,78.82ZM104,70c1,1.9,5.44,8.89,15.91,8C116,69.29,106.35,69.71,104,70Z"/><path class="cls-1" d="M115.52,75.76a.33.33,0,0,1-.21-.07c-9-6.39-15.72-6.15-15.79-6.14a.38.38,0,0,1-.39-.36.37.37,0,0,1,.36-.39c.28,0,7.07-.26,16.25,6.28a.37.37,0,0,1,.09.52A.36.36,0,0,1,115.52,75.76Z"/><path class="cls-1" d="M92.24,65.74l-.43-.2c-.11-.05-10.16-4.79-8.62-17.56l.06-.5.46.2c10.89,4.74,8.64,17.46,8.62,17.59ZM83.88,48.58c-1,10.31,5.92,15,7.79,16C91.94,62.29,92.51,52.68,83.88,48.58Z"/><path class="cls-1" d="M92.37,69.54h0a.37.37,0,0,1-.35-.4c0-.06.34-6.83-5.89-15.88a.37.37,0,0,1,.09-.52.38.38,0,0,1,.52.1c6.4,9.28,6,16.07,6,16.35A.38.38,0,0,1,92.37,69.54Z"/><path class="cls-1" d="M98,47.86l-.48,0c-.11,0-11.17-1.07-14-13.61l-.11-.49.5,0c11.85.79,14,13.51,14,13.64ZM84.36,34.54C86.93,44.73,95,46.67,97.11,47,96.58,44.74,93.88,35.49,84.36,34.54Z"/><path class="cls-1" d="M99.31,51.43a.37.37,0,0,1-.36-.27c0-.07-2-6.55-10.91-13a.38.38,0,0,1-.09-.53.37.37,0,0,1,.53-.08C97.63,44.17,99.59,50.67,99.67,51a.38.38,0,0,1-.26.46Z"/><path class="cls-1" d="M99.72,33.31l-.48,0c-.11,0-11.17-1.08-14-13.61l-.11-.49.5,0c11.85.78,14,13.51,14,13.64ZM86.05,20C88.59,30,96.69,32.09,98.8,32.45,98.27,30.17,95.56,20.93,86.05,20Z"/><path class="cls-1" d="M101,37a.37.37,0,0,1-.36-.27c0-.07-2-6.68-10.89-13.1a.38.38,0,0,1,.44-.61c9.15,6.58,11.09,13.22,11.17,13.5a.38.38,0,0,1-.26.47Z"/><path class="cls-1" d="M118.18,54.15l-.33-.35c-.07-.08-7.46-8.39-1-19.53l.25-.44.34.37c8.16,8.63,1.1,19.45,1,19.55Zm-1-19.06c-5,9.1-.42,16.1.87,17.81C119.25,50.87,123.54,42.25,117.21,35.09Z"/><path class="cls-1" d="M117,57.73a.33.33,0,0,1-.17,0,.37.37,0,0,1-.17-.5c0-.06,3-6.15.82-16.92a.38.38,0,0,1,.29-.44.37.37,0,0,1,.44.29c2.24,11.05-.75,17.15-.88,17.41A.36.36,0,0,1,117,57.73Z"/><path class="cls-1" d="M142.9,71a22.43,22.43,0,0,1-5.05-.53l-.53-.13.31-.44c.07-.11,7.18-10,19.62-6.85l.49.12-.26.44C153.77,69.75,147.38,71,142.9,71Zm-4.29-1.13c2.52.47,12.75,1.81,18-6.22C146.46,61.31,140.13,68,138.61,69.84Z"/><path class="cls-1" d="M136.19,70.5a13.19,13.19,0,0,1-2.31-.16.38.38,0,1,1,.14-.74c.07,0,6.73,1.23,16.51-3.77A.38.38,0,0,1,151,66a.39.39,0,0,1-.17.51C144.19,69.91,139,70.5,136.19,70.5Z"/><path class="cls-1" d="M102.21,62.93a15.56,15.56,0,0,1-4.46-.61l-.45-.16.26-.4c.08-.11,7.26-10.84,18.39-6.73l.48.17-.31.41C111.56,61.68,106,62.93,102.21,62.93Zm-3.72-1.18c2.08.52,10.31,1.94,16.72-6.19C106.15,52.55,99.91,59.88,98.49,61.75Z"/><path class="cls-1" d="M94.84,64.92a.38.38,0,0,1-.25-.08.39.39,0,0,1,0-.53c.18-.22,4.62-5.36,15.66-7.64a.37.37,0,1,1,.15.73c-10.78,2.23-15.19,7.34-15.24,7.39A.35.35,0,0,1,94.84,64.92Z"/><path class="cls-1" d="M101.79,43.15l.1-.47c0-.13,2.91-12.72,14.79-12.84h.5l-.14.49c-3.56,12.35-14.66,12.81-14.77,12.81ZM116.17,30.6c-9.55.42-12.76,9.49-13.41,11.74C104.88,42.09,113.08,40.48,116.17,30.6Z"/><path class="cls-1" d="M100.34,46.63a.27.27,0,0,1-.13,0,.38.38,0,0,1-.23-.48c.1-.27,2.41-6.65,11.91-12.72a.37.37,0,0,1,.52.12.36.36,0,0,1-.12.51C103,40,100.71,46.32,100.69,46.38A.36.36,0,0,1,100.34,46.63Z"/><path class="cls-1" d="M127.48,60A16.42,16.42,0,0,1,119,57.69l-.4-.27.36-.32c.1-.08,9.83-8.57,19.51-1.69l.41.3-.4.3A17.52,17.52,0,0,1,127.48,60Zm-7.65-2.7c1.87,1,9.44,4.56,17.75-1.61C129.61,50.45,121.68,55.9,119.83,57.34Z"/><path class="cls-1" d="M115.57,59.46a.38.38,0,0,1-.31-.16.37.37,0,0,1,.09-.52c.24-.17,5.86-4,17.12-3.29a.38.38,0,0,1,.35.4.37.37,0,0,1-.4.35c-11-.66-16.58,3.12-16.64,3.15A.33.33,0,0,1,115.57,59.46Z"/><path class="cls-1" d="M130.82,44.17a15.56,15.56,0,0,1-4.55-.63l-.45-.17.26-.4c.07-.1,7.31-10.8,18.43-6.63l.47.18-.31.4C140.11,42.92,134.61,44.17,130.82,44.17ZM127,43c2.08.54,10.3,2,16.75-6.1C134.7,33.81,128.43,41.11,127,43Z"/><path class="cls-1" d="M123.34,46.13a.36.36,0,0,1-.24-.09.38.38,0,0,1,0-.53c.19-.22,4.65-5.34,15.7-7.56a.37.37,0,1,1,.15.73c-10.8,2.17-15.23,7.26-15.28,7.31A.37.37,0,0,1,123.34,46.13Z"/><path class="cls-1" d="M100,25l-.1-.47c0-.13-2.4-12.82,8.44-17.67l.46-.21.06.5c1.67,12.75-8.33,17.6-8.43,17.65Zm8.18-17.24c-8.58,4.19-7.92,13.79-7.62,16.11C102.41,22.76,109.29,18,108.18,7.73Z"/><path class="cls-1" d="M99.9,28.78a.37.37,0,0,1-.37-.35c0-.29-.45-7.07,5.85-16.42a.37.37,0,0,1,.62.42c-6.15,9.14-5.73,15.88-5.72,15.94a.37.37,0,0,1-.35.4Z"/><path class="cls-1" d="M88,8.93a3,3,0,1,1,3-3A3,3,0,0,1,88,8.93Zm0-5.29A2.27,2.27,0,1,0,90.3,5.91,2.27,2.27,0,0,0,88,3.64Z"/><path class="cls-1" d="M85.76,15.91a3,3,0,1,1,3-3A3,3,0,0,1,85.76,15.91Zm0-5.29A2.27,2.27,0,1,0,88,12.89,2.27,2.27,0,0,0,85.76,10.62Z"/><path class="cls-1" d="M127.65,25.6a3,3,0,1,1,3-3A3,3,0,0,1,127.65,25.6Zm0-5.29a2.27,2.27,0,1,0,2.27,2.27A2.27,2.27,0,0,0,127.65,20.31Z"/><path class="cls-1" d="M134.29,31.2a3,3,0,1,1,3-3A3,3,0,0,1,134.29,31.2Zm0-5.29a2.27,2.27,0,1,0,2.27,2.27A2.27,2.27,0,0,0,134.29,25.91Z"/><path class="cls-1" d="M97.63,21.83a.42.42,0,0,1-.32-.16c-3.14-4.66-9.15-7.12-9.21-7.14a.37.37,0,0,1-.2-.49.37.37,0,0,1,.48-.21c.26.1,6.29,2.57,9.56,7.42a.38.38,0,0,1-.1.52A.42.42,0,0,1,97.63,21.83Z"/><path class="cls-1" d="M98.12,9.23a3,3,0,1,1,3-3A3,3,0,0,1,98.12,9.23Zm0-5.29a2.27,2.27,0,1,0,2.27,2.27A2.27,2.27,0,0,0,98.12,3.94Z"/><path class="cls-1" d="M96,18.19a.37.37,0,0,1-.37-.3C94.64,13.5,96.91,8.77,97,8.58a.37.37,0,0,1,.5-.18.38.38,0,0,1,.17.5s-2.25,4.7-1.37,8.84a.36.36,0,0,1-.28.44Z"/><path class="cls-1" d="M100.26,79.27a3,3,0,0,1-.25-6,3,3,0,0,1,2.2.69,3,3,0,0,1-1.68,5.32Zm0-5.29h-.2A2.28,2.28,0,0,0,98,76.45a2.27,2.27,0,1,0,4.53-.39,2.24,2.24,0,0,0-.8-1.54A2.27,2.27,0,0,0,100.27,74Z"/><path class="cls-1" d="M97.68,76.07a.27.27,0,0,1-.13,0s-4.88-1.84-8.92-.6a.38.38,0,0,1-.22-.72c4.29-1.31,9.2.54,9.4.62a.37.37,0,0,1,.22.48A.38.38,0,0,1,97.68,76.07Z"/><path class="cls-1" d="M108.65,50.64a3,3,0,1,1,.06-6,3,3,0,0,1,2.12.93,3,3,0,0,1-.09,4.27h0A3,3,0,0,1,108.65,50.64Zm0-5.29a2.23,2.23,0,0,0-1.57.63,2.27,2.27,0,1,0,1.61-.63Zm1.83,4.18h0Z"/><path class="cls-1" d="M97.67,57.73a.33.33,0,0,1-.17,0,.37.37,0,0,1-.17-.5,18.44,18.44,0,0,1,8.82-8.73.37.37,0,0,1,.48.21.38.38,0,0,1-.21.49A18.06,18.06,0,0,0,98,57.53.38.38,0,0,1,97.67,57.73Z"/><path class="cls-1" d="M136.72,50.82a3,3,0,1,1,2.82-4.09,3,3,0,0,1-1.75,3.89A3.07,3.07,0,0,1,136.72,50.82Zm0-5.29a2.3,2.3,0,0,0-.81.14,2.27,2.27,0,0,0-1.31,2.93,2.22,2.22,0,0,0,1.19,1.27,2.27,2.27,0,1,0,.93-4.34Z"/><path class="cls-1" d="M119.37,54.2a.39.39,0,0,1-.28-.13.38.38,0,0,1,0-.53,22.83,22.83,0,0,1,15-5.95.38.38,0,0,1,.35.39.39.39,0,0,1-.39.36,22.49,22.49,0,0,0-14.44,5.76A.39.39,0,0,1,119.37,54.2Z"/><path class="cls-1" d="M110.7,25.61A3,3,0,1,1,112.31,20a3,3,0,0,1,1.34,1.88,3,3,0,0,1-.39,2.28h0a3,3,0,0,1-1.89,1.34A3.07,3.07,0,0,1,110.7,25.61Zm0-5.29a2.26,2.26,0,0,0-1.93,1.06,2.24,2.24,0,0,0-.29,1.71,2.27,2.27,0,0,0,1,1.42,2.3,2.3,0,0,0,1.72.29,2.24,2.24,0,0,0,1.41-1h0a2.26,2.26,0,0,0-1.91-3.47Z"/><path class="cls-1" d="M101,39.84h-.07a.37.37,0,0,1-.3-.44,32.48,32.48,0,0,1,7.8-15.35.37.37,0,0,1,.53.53,31.87,31.87,0,0,0-7.59,15A.38.38,0,0,1,101,39.84Z"/><path class="cls-1" d="M151.7,77.34a2.17,2.17,0,0,1-.36,0h0a3,3,0,1,1,.36,0Zm-.27-.76a2.27,2.27,0,1,0-2-2.53,2.28,2.28,0,0,0,2,2.53Z"/><path class="cls-1" d="M148.27,74.7c-1.72,0-6.49-.41-13.63-4.25a.38.38,0,0,1,.36-.66c8.67,4.66,13.84,4.14,13.89,4.14a.36.36,0,0,1,.41.33.36.36,0,0,1-.33.41A5.21,5.21,0,0,1,148.27,74.7Z"/><path class="cls-1" d="M124,66.4a3,3,0,0,1-2.86-2,3,3,0,0,1,.15-2.31A3,3,0,0,1,123,60.52a3,3,0,0,1,2,5.72h0A3,3,0,0,1,124,66.4Zm0-5.29a2.33,2.33,0,0,0-.73.12,2.27,2.27,0,0,0-.27,4.19,2.22,2.22,0,0,0,1.73.11h0a2.27,2.27,0,0,0,.27-4.19A2.32,2.32,0,0,0,124,61.11Z"/><path class="cls-1" d="M112.23,67a.38.38,0,0,1-.37-.34.37.37,0,0,1,.34-.41,44.08,44.08,0,0,0,9.17-2,.38.38,0,0,1,.48.22.37.37,0,0,1-.23.48A43.65,43.65,0,0,1,112.27,67Z"/><path class="cls-1" d="M124.6,42.41a.34.34,0,0,1-.28-.13.38.38,0,0,1,0-.53,38.87,38.87,0,0,0,8.31-11.23.38.38,0,0,1,.5-.18.37.37,0,0,1,.19.49,40.28,40.28,0,0,1-8.49,11.48A.36.36,0,0,1,124.6,42.41Z"/><path class="cls-1" d="M119.1,23a3,3,0,1,1,3-3A3,3,0,0,1,119.1,23Zm0-5.29a2.27,2.27,0,1,0,2.27,2.27A2.27,2.27,0,0,0,119.1,17.67Z"/><path class="cls-1" d="M125.25,40.16h0a.38.38,0,0,1-.34-.41,30.66,30.66,0,0,0-4.79-17.29.38.38,0,0,1,.64-.4,31.57,31.57,0,0,1,4.9,17.76A.39.39,0,0,1,125.25,40.16Z"/><path class="cls-1" d="M145.84,56.28a2.68,2.68,0,0,1-.62-.07,3,3,0,0,1-1.91-1.29,3,3,0,1,1,5.05-3.32,3,3,0,0,1-2.52,4.68Zm0-5.29a2.26,2.26,0,0,0-1.89,3.51,2.22,2.22,0,0,0,1.44,1,2.26,2.26,0,0,0,1.7-.32h0a2.28,2.28,0,0,0,.66-3.15A2.3,2.3,0,0,0,145.83,51Z"/><path class="cls-1" d="M132.62,69.66a.35.35,0,0,1-.33-.2.36.36,0,0,1,.15-.5,30.72,30.72,0,0,0,11.84-13.49.37.37,0,0,1,.5-.18.38.38,0,0,1,.17.5,31.39,31.39,0,0,1-12.16,13.83A.33.33,0,0,1,132.62,69.66Z"/><path class="cls-1" d="M50.14,96.54c-6.59,0-13.8-2-21.19-7.36a.38.38,0,0,1,.44-.61c27,19.68,51.5-7.13,51.75-7.4a.37.37,0,0,1,.53,0,.39.39,0,0,1,0,.53C81.51,81.87,68.11,96.54,50.14,96.54Z"/><path class="cls-1" d="M35.34,138a.38.38,0,0,1-.38-.38,53.36,53.36,0,0,1,.68-7.21c1-6.53,5.5-28.39,23.36-35.71a.37.37,0,0,1,.48.21.37.37,0,0,1-.2.49c-17.49,7.16-21.94,28.69-22.89,35.12a52.05,52.05,0,0,0-.68,7.1A.37.37,0,0,1,35.34,138Z"/><path class="cls-1" d="M73.23,155a.38.38,0,0,1-.29-.14,49.59,49.59,0,0,1-11.18-25c-1.87-14.73,5.29-36.62,14.45-44.19a.37.37,0,0,1,.47.58c-8,6.64-16.14,28-14.18,43.51a48.81,48.81,0,0,0,11,24.63.38.38,0,0,1-.29.62Z"/><path class="cls-1" d="M37.42,95.18c-4,0-11.61-1.1-14.93-9.07l-.19-.46.5-.05c12.8-1.32,17.37,8.8,17.41,8.9l.2.44-.48.08A16.51,16.51,0,0,1,37.42,95.18Zm-14-8.88c4,8.7,13.58,8.28,15.9,8C38.26,92.46,33.71,85.45,23.39,86.3Z"/><path class="cls-1" d="M56.91,93.72c-4,0-11.61-1.1-14.92-9.07l-.2-.46.5-.06c12.8-1.32,17.37,8.81,17.42,8.91l.19.44-.47.08A18.7,18.7,0,0,1,56.91,93.72Zm-14-8.89c4,8.71,13.58,8.29,15.91,8C57.76,91,53.2,84,42.88,84.83Z"/><path class="cls-1" d="M63.12,94c-1.27,0-7.65-.32-16-6.29a.37.37,0,0,1-.09-.52.38.38,0,0,1,.53-.09c9,6.39,15.72,6.16,15.78,6.15a.37.37,0,0,1,.39.35.38.38,0,0,1-.35.4Z"/><path class="cls-1" d="M79.59,115.35l-.47-.2c-10.88-4.74-8.64-17.46-8.62-17.58l.09-.48.44.2c.1,0,10.15,4.79,8.62,17.56ZM71.17,98.21c-.28,2.33-.84,11.94,7.79,16C80,103.93,73,99.27,71.17,98.21Z"/><path class="cls-1" d="M76.42,110.16a.37.37,0,0,1-.31-.17c-6.39-9.28-6-16.07-6-16.35a.35.35,0,0,1,.39-.35.38.38,0,0,1,.36.4c0,.06-.35,6.83,5.89,15.88a.38.38,0,0,1-.1.52A.44.44,0,0,1,76.42,110.16Z"/><path class="cls-1" d="M79.44,129.11l-.51,0c-11.85-.78-14-13.51-14.05-13.64L64.8,115l.48,0c.11,0,11.18,1.08,14,13.61ZM65.73,115.83c.52,2.28,3.24,11.52,12.74,12.46C75.93,118.25,67.84,116.2,65.73,115.83Z"/><path class="cls-1" d="M74.57,125.32a.47.47,0,0,1-.22-.07c-9.15-6.58-11.11-13.09-11.18-13.37a.37.37,0,0,1,.25-.46.39.39,0,0,1,.47.26c0,.06,2,6.54,10.9,13a.37.37,0,0,1,.09.52A.4.4,0,0,1,74.57,125.32Z"/><path class="cls-1" d="M77.74,143.67l-.5,0c-11.85-.78-14-13.51-14-13.63l-.08-.48.48,0c.11,0,11.18,1.08,14,13.62ZM64,130.38c.53,2.28,3.24,11.52,12.75,12.46C74.24,132.79,66.15,130.75,64,130.38Z"/><path class="cls-1" d="M72.88,139.87a.36.36,0,0,1-.22-.07c-9.15-6.58-11.09-13.22-11.17-13.5a.37.37,0,1,1,.72-.2c0,.06,2,6.68,10.89,13.09a.37.37,0,0,1-.22.68Z"/><path class="cls-1" d="M45.76,129l-.34-.37c-8.16-8.63-1.1-19.44-1-19.55l.27-.4L45,109c.08.09,7.46,8.39,1,19.53Zm-1-19.06c-1.17,2-5.46,10.64.87,17.8C50.59,118.64,46.05,111.64,44.75,109.94Z"/><path class="cls-1" d="M45,123a.36.36,0,0,1-.36-.3c-2.24-11,.75-17.15.88-17.41a.38.38,0,0,1,.5-.16.37.37,0,0,1,.17.5c0,.06-3,6.15-.82,16.92a.38.38,0,0,1-.29.44Z"/><path class="cls-1" d="M10.42,100.44a19.45,19.45,0,0,1-4.84-.63l-.49-.12.26-.43C11.46,89.1,24.85,92.35,25,92.39l.53.13L25.2,93C25.14,93.05,19.85,100.44,10.42,100.44ZM6.26,99.21c10.11,2.31,16.44-4.37,18-6.21C21.7,92.52,11.47,91.19,6.26,99.21Z"/><path class="cls-1" d="M12.13,97.05a.39.39,0,0,1-.34-.21.37.37,0,0,1,.17-.5c10-5.13,16.72-3.9,17-3.84a.37.37,0,0,1,.29.44.38.38,0,0,1-.44.29c-.07,0-6.73-1.23-16.51,3.77A.37.37,0,0,1,12.13,97.05Z"/><path class="cls-1" d="M51.93,108.74a14.49,14.49,0,0,1-5-.94l-.47-.17.3-.4C54.43,97,65,100.48,65.08,100.51l.45.16-.26.4C65.21,101.16,60.14,108.74,51.93,108.74Zm-4.31-1.47c9.07,3,15.31-4.32,16.72-6.19C62.26,100.56,54,99.14,47.62,107.27Z"/><path class="cls-1" d="M52.55,106.17a.38.38,0,0,1-.37-.29.38.38,0,0,1,.29-.45c10.79-2.23,15.2-7.34,15.24-7.39a.38.38,0,0,1,.53-.05.37.37,0,0,1,0,.53c-.18.22-4.62,5.37-15.66,7.65Z"/><path class="cls-1" d="M45.65,133l.14-.48c3.56-12.36,14.66-12.82,14.77-12.82H61l-.1.46c0,.13-2.91,12.72-14.78,12.85Zm14.43-12.51c-2.14.22-10.29,1.72-13.42,11.74C56.23,131.81,59.43,122.72,60.08,120.49Z"/><path class="cls-1" d="M50.74,129.48a.39.39,0,0,1-.32-.17.37.37,0,0,1,.12-.52c9.28-5.93,11.58-12.28,11.6-12.34a.38.38,0,0,1,.48-.23.37.37,0,0,1,.23.48c-.09.27-2.41,6.66-11.91,12.72A.36.36,0,0,1,50.74,129.48Z"/><path class="cls-1" d="M32.54,110.11a13.83,13.83,0,0,1-8.15-2.69l-.41-.29.4-.31c10.14-7.91,19.39-1.74,19.48-1.68l.4.27-.36.32C43.83,105.79,38.88,110.11,32.54,110.11Zm-7.29-3c8,5.28,15.92-.18,17.76-1.61C41.15,104.41,33.68,100.83,25.25,107.1Z"/><path class="cls-1" d="M33,107.42c-.85,0-1.73,0-2.66-.08a.38.38,0,0,1-.35-.4.39.39,0,0,1,.4-.35c11,.67,16.59-3.11,16.64-3.15a.37.37,0,0,1,.52.09.38.38,0,0,1-.09.53C47.26,104.2,42.5,107.42,33,107.42Z"/><path class="cls-1" d="M23.44,127.45a14.53,14.53,0,0,1-5.12-1l-.47-.18.31-.4c7.78-10.24,18.3-6.65,18.4-6.61l.45.16-.26.4C36.69,120,31.61,127.45,23.44,127.45ZM19.07,126c9.06,3.06,15.33-4.24,16.75-6.1C33.75,119.33,25.52,117.86,19.07,126Z"/><path class="cls-1" d="M24,124.89a.37.37,0,0,1-.07-.74c10.77-2.17,15.23-7.26,15.28-7.31a.37.37,0,0,1,.53,0,.38.38,0,0,1,0,.53c-.19.21-4.65,5.33-15.7,7.55Z"/><path class="cls-1" d="M54,156.21l-.06-.5C52.3,143,62.3,138.11,62.4,138.07l.44-.21.09.47c0,.13,2.4,12.82-8.44,17.67ZM62.27,139c-1.85,1.08-8.72,5.82-7.62,16.11C63.25,150.91,62.57,141.31,62.27,139Z"/><path class="cls-1" d="M57.14,151a.44.44,0,0,1-.21-.07.38.38,0,0,1-.1-.52c6.15-9.14,5.73-15.87,5.72-15.94a.37.37,0,0,1,.35-.4.36.36,0,0,1,.4.34c0,.29.45,7.07-5.85,16.42A.37.37,0,0,1,57.14,151Z"/><path class="cls-1" d="M74.8,160a3,3,0,1,1,3-3A3,3,0,0,1,74.8,160Zm0-5.29a2.27,2.27,0,1,0,2.27,2.27A2.27,2.27,0,0,0,74.8,154.66Z"/><path class="cls-1" d="M77.08,153a3,3,0,1,1,3-3A3,3,0,0,1,77.08,153Zm0-5.29a2.27,2.27,0,1,0,2.27,2.27A2.27,2.27,0,0,0,77.08,147.67Z"/><path class="cls-1" d="M35.18,143.27a3,3,0,1,1,3-3A3,3,0,0,1,35.18,143.27Zm0-5.29a2.27,2.27,0,1,0,2.27,2.27A2.27,2.27,0,0,0,35.18,138Z"/><path class="cls-1" d="M28.54,137.67a3,3,0,1,1,3-3A3,3,0,0,1,28.54,137.67Zm0-5.29a2.27,2.27,0,1,0,2.27,2.27A2.27,2.27,0,0,0,28.54,132.38Z"/><path class="cls-1" d="M74.59,149a.32.32,0,0,1-.14,0c-.26-.1-6.29-2.57-9.55-7.41a.37.37,0,1,1,.62-.42c3.14,4.65,9.15,7.11,9.21,7.14a.37.37,0,0,1-.14.72Z"/><path class="cls-1" d="M64.71,159.64a3,3,0,1,1,3-3A3,3,0,0,1,64.71,159.64Zm0-5.29A2.27,2.27,0,1,0,67,156.62,2.27,2.27,0,0,0,64.71,154.35Z"/><path class="cls-1" d="M65.49,154.47a.35.35,0,0,1-.17,0,.38.38,0,0,1-.17-.5c0-.05,2.25-4.7,1.37-8.84a.36.36,0,0,1,.29-.44.37.37,0,0,1,.44.29c.94,4.39-1.33,9.12-1.42,9.32A.39.39,0,0,1,65.49,154.47Z"/><path class="cls-1" d="M62.56,89.6a3,3,0,0,1-.25-6h0a3,3,0,0,1,2.2.7,2.93,2.93,0,0,1,1.06,2,3,3,0,0,1-2.74,3.27Zm-.19-5.28a2.27,2.27,0,0,0-2.07,2.45,2.31,2.31,0,0,0,.8,1.55,2.28,2.28,0,0,0,1.66.52A2.24,2.24,0,0,0,64.3,88a2.26,2.26,0,0,0-1.93-3.72Z"/><path class="cls-1" d="M71,88.57a18.43,18.43,0,0,1-6-1.09A.37.37,0,0,1,64.8,87a.38.38,0,0,1,.49-.22s4.87,1.84,8.92.6a.38.38,0,1,1,.22.72A11.7,11.7,0,0,1,71,88.57Z"/><path class="cls-1" d="M54.19,118.23a3,3,0,0,1-3-3.08,2.94,2.94,0,0,1,.92-2.11,3,3,0,1,1,4.19,4.35A3,3,0,0,1,54.19,118.23Zm0-5.28a2.28,2.28,0,0,0-1.58.63h0a2.28,2.28,0,1,0,1.58-.63Zm-1.84.36h0Z"/><path class="cls-1" d="M56.55,114.4a.38.38,0,0,1-.14-.73,18.06,18.06,0,0,0,8.42-8.37.39.39,0,0,1,.51-.16.38.38,0,0,1,.16.5,18.44,18.44,0,0,1-8.82,8.73A.31.31,0,0,1,56.55,114.4Z"/><path class="cls-1" d="M26.12,118.05a3,3,0,1,1,1.06-.19A3,3,0,0,1,26.12,118.05Zm0-5.29a2.22,2.22,0,0,0-.8.15A2.28,2.28,0,0,0,24,115.84a2.2,2.2,0,0,0,1.19,1.26,2.27,2.27,0,1,0,.93-4.34Z"/><path class="cls-1" d="M29,115.24h-.29a.38.38,0,0,1-.36-.39.37.37,0,0,1,.39-.36,22.41,22.41,0,0,0,14.44-5.76.38.38,0,0,1,.5.56A23,23,0,0,1,29,115.24Z"/><path class="cls-1" d="M52.13,143.27a3,3,0,0,1-2.56-4.63h0a3,3,0,1,1,3.23,4.55A3.07,3.07,0,0,1,52.13,143.27ZM50.21,139a2.28,2.28,0,0,0,.71,3.13,2.28,2.28,0,0,0,1.71.29,2.22,2.22,0,0,0,1.42-1A2.27,2.27,0,1,0,50.21,139Z"/><path class="cls-1" d="M54.13,138.89a.34.34,0,0,1-.26-.11.37.37,0,0,1,0-.53,31.67,31.67,0,0,0,7.6-15,.38.38,0,0,1,.44-.3.38.38,0,0,1,.29.44,32.61,32.61,0,0,1-7.8,15.36A.38.38,0,0,1,54.13,138.89Z"/><path class="cls-1" d="M11.13,91.53l-.36,0a3,3,0,0,1-2-1.14,3,3,0,0,1,2.73-4.86,3,3,0,0,1,2,1.13,3,3,0,0,1,.62,2.23A3,3,0,0,1,11.13,91.53Zm0-5.29a2.28,2.28,0,0,0-2.25,2,2.24,2.24,0,0,0,.47,1.67,2.22,2.22,0,0,0,1.51.85,2.27,2.27,0,0,0,.54-4.51h-.27Z"/><path class="cls-1" d="M28,93.09a.41.41,0,0,1-.18,0C19.14,88.37,14,88.9,13.94,88.9a.36.36,0,0,1-.41-.32.37.37,0,0,1,.33-.42c.21,0,5.42-.57,14.33,4.22a.38.38,0,0,1,.15.51A.4.4,0,0,1,28,93.09Z"/><path class="cls-1" d="M38.83,102.47a3,3,0,0,1-2.71-4.35,3,3,0,0,1,1.74-1.53h0a3,3,0,0,1,3.83,1.88,3,3,0,0,1-2.86,4ZM38.1,97.3a2.25,2.25,0,0,0-1.31,1.15,2.31,2.31,0,0,0-.11,1.73A2.27,2.27,0,0,0,41,98.72,2.27,2.27,0,0,0,38.1,97.3Z"/><path class="cls-1" d="M41.34,98.65A.39.39,0,0,1,41,98.4a.38.38,0,0,1,.23-.48,44.16,44.16,0,0,1,9.35-2.07.37.37,0,1,1,.07.74,43,43,0,0,0-9.17,2Z"/><path class="cls-1" d="M29.84,132.53a.37.37,0,0,1-.15,0,.38.38,0,0,1-.19-.5A39.88,39.88,0,0,1,38,120.52a.37.37,0,0,1,.53,0,.39.39,0,0,1,0,.53,39,39,0,0,0-8.31,11.23A.37.37,0,0,1,29.84,132.53Z"/><path class="cls-1" d="M43.73,145.91a3,3,0,1,1,3-3A3,3,0,0,1,43.73,145.91Zm0-5.29A2.27,2.27,0,1,0,46,142.89,2.27,2.27,0,0,0,43.73,140.62Z"/><path class="cls-1" d="M42.42,141a.4.4,0,0,1-.32-.18A31.39,31.39,0,0,1,37.21,123a.37.37,0,1,1,.74.08,30.68,30.68,0,0,0,4.79,17.29.37.37,0,0,1-.12.51A.36.36,0,0,1,42.42,141Z"/><path class="cls-1" d="M17,112.59a3.26,3.26,0,0,1-.62-.06,3,3,0,0,1-1.91-1.3,3,3,0,0,1,.87-4.18h0a3,3,0,0,1,4.18.87A3,3,0,0,1,17,112.59Zm-1.25-4.92A2.27,2.27,0,1,0,19.22,110a2.24,2.24,0,0,0-.33-1.71,2.27,2.27,0,0,0-3.14-.66Z"/><path class="cls-1" d="M18.22,107.58a.29.29,0,0,1-.16,0,.37.37,0,0,1-.18-.5A31.46,31.46,0,0,1,30,93.21a.38.38,0,0,1,.51.16.39.39,0,0,1-.16.51,30.61,30.61,0,0,0-11.83,13.48A.38.38,0,0,1,18.22,107.58Z"/><path class="cls-1" d="M46.7,16,57.92,44.94a4.9,4.9,0,0,0,1.56,2.33,3.44,3.44,0,0,0,1.61.62v.92q-.92-.09-2.25-.12l-2.67,0-3.36,0c-1,0-1.88.06-2.53.12v-.92c1.57-.06,2.56-.33,3-.81S53.61,45.59,53,44L44.44,21.16l.74-.6-8,20.8a12.14,12.14,0,0,0-.87,3.1,3.5,3.5,0,0,0,.25,2,2.25,2.25,0,0,0,1.34,1.06,8.42,8.42,0,0,0,2.37.37v.92c-.86-.06-1.76-.1-2.69-.12l-2.6,0-2,0c-.54,0-1,.06-1.49.12v-.92a4.76,4.76,0,0,0,1.88-1.08,7.28,7.28,0,0,0,1.75-2.92L46,16h.74Zm5.61,19.55v.92H38.6l.46-.92Z"/><path class="cls-1" d="M110.63,143.26v-.92A9.17,9.17,0,0,0,113,142a1.63,1.63,0,0,0,1.08-1.1,8.49,8.49,0,0,0,.28-2.49V115.57a8.46,8.46,0,0,0-.28-2.51A1.69,1.69,0,0,0,113,112a7.81,7.81,0,0,0-2.37-.35v-.92l2.53.09c1,0,2.16,0,3.36,0s2.14,0,3.2,0l2.64-.09v.92A7.81,7.81,0,0,0,120,112a1.69,1.69,0,0,0-1.08,1.1,8.46,8.46,0,0,0-.28,2.51v22.81a8.49,8.49,0,0,0,.28,2.49A1.63,1.63,0,0,0,120,142a9.17,9.17,0,0,0,2.37.37v.92q-1.06-.09-2.64-.12l-3.2,0-3.36,0C112.12,143.16,111.27,143.2,110.63,143.26ZM117,127.34v-.92h18.17v.92Zm12.84,15.92v-.92a9.17,9.17,0,0,0,2.37-.37,1.67,1.67,0,0,0,1.08-1.1,8.56,8.56,0,0,0,.27-2.49V115.57a8.53,8.53,0,0,0-.27-2.51,1.74,1.74,0,0,0-1.08-1.1,7.81,7.81,0,0,0-2.37-.35v-.92l2.67.09c1.07,0,2.13,0,3.17,0,1.2,0,2.32,0,3.36,0l2.53-.09v.92a7.81,7.81,0,0,0-2.37.35,1.69,1.69,0,0,0-1.08,1.1,8.13,8.13,0,0,0-.28,2.51v22.81a8.16,8.16,0,0,0,.28,2.49,1.63,1.63,0,0,0,1.08,1.1,9.17,9.17,0,0,0,2.37.37v.92c-.65-.06-1.49-.1-2.53-.12l-3.36,0-3.17,0Q130.91,143.17,129.86,143.26Z"/><path class="cls-1" d="M18.54,64.3l1.71,4.4a.71.71,0,0,0,.24.35.59.59,0,0,0,.24.1v.14l-.34,0h-.92l-.38,0v-.14c.23,0,.39-.05.45-.13s.05-.22,0-.46l-1.3-3.48.11-.09-1.22,3.16a2,2,0,0,0-.13.47.49.49,0,0,0,0,.31.33.33,0,0,0,.2.16,1.68,1.68,0,0,0,.36.06v.14l-.41,0h-.69l-.23,0v-.14a.81.81,0,0,0,.29-.17,1,1,0,0,0,.26-.44l1.65-4.24h.11Zm.85,3v.14H17.31l.07-.14Z"/><path class="cls-1" d="M27.66,64.25a1.44,1.44,0,0,1,.53.08l.33.18.13.08.1,0a.11.11,0,0,0,.1-.08.74.74,0,0,0,.06-.23h.16l0,.29c0,.11,0,.25,0,.43s0,.42,0,.71h-.16a2,2,0,0,0-.14-.64,1.3,1.3,0,0,0-.37-.51,1,1,0,0,0-.64-.19.86.86,0,0,0-.61.22.78.78,0,0,0-.24.59.86.86,0,0,0,.16.53,1.6,1.6,0,0,0,.43.38l.59.37c.24.15.46.3.64.44a1.87,1.87,0,0,1,.45.49,1.2,1.2,0,0,1,.17.64,1.28,1.28,0,0,1-.21.75,1.24,1.24,0,0,1-.54.44,1.78,1.78,0,0,1-.74.14,1.65,1.65,0,0,1-.59-.08,2.56,2.56,0,0,1-.37-.17.46.46,0,0,0-.23-.1.11.11,0,0,0-.11.07,1.92,1.92,0,0,0-.05.24h-.16a3.49,3.49,0,0,0,0-.35v-.52c0-.22,0-.49,0-.81h.16a2.77,2.77,0,0,0,.16.78,1.21,1.21,0,0,0,.4.58,1.13,1.13,0,0,0,1.15.13.75.75,0,0,0,.34-.3,1,1,0,0,0,.13-.54.93.93,0,0,0-.13-.5,1.77,1.77,0,0,0-.38-.4c-.17-.12-.36-.25-.58-.38a7.19,7.19,0,0,1-.61-.41,1.53,1.53,0,0,1-.46-.49,1.17,1.17,0,0,1-.17-.67,1.21,1.21,0,0,1,.18-.68,1.13,1.13,0,0,1,.49-.4A1.7,1.7,0,0,1,27.66,64.25Z"/><path class="cls-1" d="M35.12,69.29v-.14a1.32,1.32,0,0,0,.36-.06.24.24,0,0,0,.17-.17,1.21,1.21,0,0,0,0-.38V65.07a1.21,1.21,0,0,0,0-.38.26.26,0,0,0-.17-.17,1.4,1.4,0,0,0-.36,0v-.14h1.79v.14a1.4,1.4,0,0,0-.36,0,.29.29,0,0,0-.17.17,1.62,1.62,0,0,0,0,.38v3.47a1.62,1.62,0,0,0,0,.38.26.26,0,0,0,.17.17,1.32,1.32,0,0,0,.36.06v.14l-.4,0h-1Zm1-2.42v-.15h2.76v.15Zm1.95,2.42v-.14a1.32,1.32,0,0,0,.36-.06.23.23,0,0,0,.16-.17,1.16,1.16,0,0,0,0-.38V65.07a1.16,1.16,0,0,0,0-.38.25.25,0,0,0-.16-.17,1.4,1.4,0,0,0-.36,0v-.14h1.78v.14a1.55,1.55,0,0,0-.36,0,.27.27,0,0,0-.16.17,1.21,1.21,0,0,0,0,.38v3.47a1.21,1.21,0,0,0,0,.38.25.25,0,0,0,.16.17,1.49,1.49,0,0,0,.36.06v.14l-.38,0h-1Z"/><path class="cls-1" d="M47.39,64.33v.14a1.4,1.4,0,0,0-.36,0,.29.29,0,0,0-.17.17,1.21,1.21,0,0,0,0,.38v3.47a1.21,1.21,0,0,0,0,.38.26.26,0,0,0,.17.17,1.49,1.49,0,0,0,.36,0h.51a1.84,1.84,0,0,0,.53-.07.66.66,0,0,0,.33-.23.93.93,0,0,0,.19-.4,6,6,0,0,0,.1-.61h.16a4.54,4.54,0,0,0,0,.57c0,.09,0,.22,0,.38a4.73,4.73,0,0,0,0,.52l-.81,0H45.6v-.14a1.32,1.32,0,0,0,.36-.06.26.26,0,0,0,.17-.17,1.21,1.21,0,0,0,0-.38V65.07a1.21,1.21,0,0,0,0-.38.29.29,0,0,0-.17-.17,1.4,1.4,0,0,0-.36,0v-.14h1.79Z"/><path class="cls-1" d="M58.39,64.33c0,.16,0,.32,0,.48s0,.27,0,.35a1.93,1.93,0,0,0,0,.24c0,.08,0,.14,0,.19H58.2a3.63,3.63,0,0,0-.12-.65.6.6,0,0,0-.26-.35,1.3,1.3,0,0,0-.56-.1h-.58a1.11,1.11,0,0,0-.36,0,.25.25,0,0,0-.16.16,1.21,1.21,0,0,0,0,.38v3.47a1.21,1.21,0,0,0,0,.38.25.25,0,0,0,.16.17,1.49,1.49,0,0,0,.36,0h.51a1.46,1.46,0,0,0,.67-.12.72.72,0,0,0,.33-.39,2.8,2.8,0,0,0,.15-.73h.16c0,.12,0,.29,0,.5s0,.22,0,.38,0,.34,0,.52l-.8,0H54.9v-.14a1.32,1.32,0,0,0,.36-.06.23.23,0,0,0,.16-.17,1.16,1.16,0,0,0,0-.38V65.07a1.16,1.16,0,0,0,0-.38.25.25,0,0,0-.16-.17,1.4,1.4,0,0,0-.36,0v-.14h2.76Zm-1.2,2.39v.15H55.91v-.15Zm.2-.92a4.71,4.71,0,0,0,0,.61v.38c0,.12,0,.25,0,.39s0,.34,0,.61h-.16c0-.15,0-.3-.07-.44A.67.67,0,0,0,57,67a.61.61,0,0,0-.44-.13v-.15a.58.58,0,0,0,.35-.09.55.55,0,0,0,.18-.24,1.57,1.57,0,0,0,.08-.31c0-.1,0-.2,0-.28Z"/><path class="cls-1" d="M68.16,64.33v.14a.56.56,0,0,0-.26.17,2.48,2.48,0,0,0-.3.45l-1.41,2.8h-.12l-1.64-3a1.18,1.18,0,0,0-.23-.33.35.35,0,0,0-.17-.06v-.15h1.11l.48,0v.15a1,1,0,0,0-.31,0,.28.28,0,0,0-.17.15.41.41,0,0,0,.06.32l1.19,2.27-.06,0,.93-1.86a1.4,1.4,0,0,0,.19-.59.29.29,0,0,0-.16-.29,1.1,1.1,0,0,0-.46-.09v-.14h1.33ZM66.5,67.16v1.38a1.16,1.16,0,0,0,0,.38.23.23,0,0,0,.16.17,1.32,1.32,0,0,0,.36.06v.14l-.4,0h-1l-.38,0v-.14a1.49,1.49,0,0,0,.36-.06.25.25,0,0,0,.16-.17,1.21,1.21,0,0,0,0-.38V67.11l.38.43Z"/><path class="cls-1" d="M94,97.64V97.5a1.32,1.32,0,0,0,.36-.06.25.25,0,0,0,.16-.17,1.21,1.21,0,0,0,0-.38V93.42a1.21,1.21,0,0,0,0-.38.27.27,0,0,0-.16-.17,1.06,1.06,0,0,0-.36-.05v-.14h1.78v.14a1.06,1.06,0,0,0-.36.05.25.25,0,0,0-.16.17,1.16,1.16,0,0,0,0,.38v3.47a1.16,1.16,0,0,0,0,.38.23.23,0,0,0,.16.17,1.32,1.32,0,0,0,.36.06v.14l-.4,0h-1Zm1-2.43v-.14h2.77v.14Zm2,2.43V97.5a1.32,1.32,0,0,0,.36-.06.26.26,0,0,0,.17-.17,1.21,1.21,0,0,0,0-.38V93.42a1.21,1.21,0,0,0,0-.38.29.29,0,0,0-.17-.17,1.06,1.06,0,0,0-.36-.05v-.14H98.7v.14a1.06,1.06,0,0,0-.36.05.29.29,0,0,0-.17.17,1.21,1.21,0,0,0,0,.38v3.47a1.21,1.21,0,0,0,0,.38.26.26,0,0,0,.17.17,1.32,1.32,0,0,0,.36.06v.14l-.39,0h-1Z"/><path class="cls-1" d="M106.43,92.64l1.71,4.41a.76.76,0,0,0,.24.35.59.59,0,0,0,.24.1v.14l-.34,0h-.92l-.38,0V97.5c.24,0,.39,0,.45-.13s.06-.22,0-.46l-1.3-3.48.11-.09L105,96.5a2,2,0,0,0-.13.47.59.59,0,0,0,0,.31.36.36,0,0,0,.2.16,1.68,1.68,0,0,0,.36.06v.14l-.41,0h-.69l-.23,0V97.5a.73.73,0,0,0,.29-.17,1,1,0,0,0,.27-.44l1.64-4.25h.11Zm.86,3v.14H105.2l.07-.14Z"/><path class="cls-1" d="M113.92,92.68h1.91a2.37,2.37,0,0,1,.94.16,1.19,1.19,0,0,1,.56.44,1.09,1.09,0,0,1,.18.61,1.26,1.26,0,0,1-.08.45,1.24,1.24,0,0,1-.29.45,1.63,1.63,0,0,1-.56.35,2.62,2.62,0,0,1-.91.13H115v-.14h.6a1.55,1.55,0,0,0,.76-.15.81.81,0,0,0,.36-.42,1.83,1.83,0,0,0,.09-.59,1.26,1.26,0,0,0-.26-.86,1.13,1.13,0,0,0-.9-.3.55.55,0,0,0-.42.12.85.85,0,0,0-.1.48v3.47a1.16,1.16,0,0,0,.05.38.23.23,0,0,0,.16.17,1.32,1.32,0,0,0,.36.06v.14l-.4,0h-1l-.38,0V97.5a1.49,1.49,0,0,0,.36-.06.25.25,0,0,0,.16-.17,1.21,1.21,0,0,0,0-.38V93.42a1.21,1.21,0,0,0,0-.38.27.27,0,0,0-.16-.17,1.15,1.15,0,0,0-.36-.05ZM115,95.16c.25,0,.45,0,.59,0l.36,0,.26,0a1.16,1.16,0,0,1,.67.29,1.28,1.28,0,0,1,.31.64l.17.71a1.81,1.81,0,0,0,.15.44.21.21,0,0,0,.23.13.32.32,0,0,0,.19-.07,1.11,1.11,0,0,0,.18-.19l.1.08a1.64,1.64,0,0,1-.3.33.75.75,0,0,1-.45.11.72.72,0,0,1-.45-.15,1,1,0,0,1-.3-.6l-.15-.7a3.81,3.81,0,0,0-.14-.52.82.82,0,0,0-.23-.35.62.62,0,0,0-.42-.13H115Z"/><path class="cls-1" d="M123.63,92.68h1.91a2.33,2.33,0,0,1,.94.16,1.14,1.14,0,0,1,.56.44,1,1,0,0,1,.19.61,1.53,1.53,0,0,1-.08.45,1.38,1.38,0,0,1-.29.45,1.58,1.58,0,0,1-.57.35,2.6,2.6,0,0,1-.9.13h-.67v-.14h.6a1.57,1.57,0,0,0,.76-.15.91.91,0,0,0,.36-.42,1.83,1.83,0,0,0,.09-.59,1.32,1.32,0,0,0-.26-.86,1.16,1.16,0,0,0-.9-.3q-.33,0-.42.12a.78.78,0,0,0-.1.48v3.47a1.21,1.21,0,0,0,0,.38.24.24,0,0,0,.17.17,1.32,1.32,0,0,0,.36.06v.14l-.41,0h-1l-.39,0V97.5a1.32,1.32,0,0,0,.36-.06.26.26,0,0,0,.17-.17,1.62,1.62,0,0,0,0-.38V93.42a1.62,1.62,0,0,0,0-.38.29.29,0,0,0-.17-.17,1.06,1.06,0,0,0-.36-.05Zm1.12,2.48c.25,0,.45,0,.59,0l.35,0,.27,0a1.19,1.19,0,0,1,.67.29,1.28,1.28,0,0,1,.31.64l.17.71a2.56,2.56,0,0,0,.14.44.22.22,0,0,0,.23.13.32.32,0,0,0,.2-.07,1.72,1.72,0,0,0,.17-.19l.11.08a1.42,1.42,0,0,1-.31.33.7.7,0,0,1-.44.11.75.75,0,0,1-.46-.15,1,1,0,0,1-.29-.6l-.15-.7a3.7,3.7,0,0,0-.15-.52.81.81,0,0,0-.22-.35.67.67,0,0,0-.43-.13h-.75Z"/><path class="cls-1" d="M135.13,92.68v.14a1.06,1.06,0,0,0-.36.05.27.27,0,0,0-.16.17,1.21,1.21,0,0,0,0,.38v3.47a1.21,1.21,0,0,0,0,.38.25.25,0,0,0,.16.17,1.32,1.32,0,0,0,.36.06v.14l-.4,0h-1l-.38,0V97.5a1.32,1.32,0,0,0,.36-.06.25.25,0,0,0,.16-.17,1.21,1.21,0,0,0,0-.38V93.42a1.21,1.21,0,0,0,0-.38.27.27,0,0,0-.16-.17,1.06,1.06,0,0,0-.36-.05v-.14h1.78Z"/><path class="cls-1" d="M144.39,92.68c0,.16,0,.32,0,.48s0,.27,0,.35,0,.16,0,.24,0,.14,0,.19h-.17a2.88,2.88,0,0,0-.11-.65.58.58,0,0,0-.27-.35,1.15,1.15,0,0,0-.55-.1h-.58a1.22,1.22,0,0,0-.37,0,.23.23,0,0,0-.16.16,1.21,1.21,0,0,0,0,.38v3.47a1.21,1.21,0,0,0,0,.38.25.25,0,0,0,.16.17,1.77,1.77,0,0,0,.37,0h.51a1.61,1.61,0,0,0,.66-.11.64.64,0,0,0,.33-.39,2.9,2.9,0,0,0,.15-.73h.17a3.25,3.25,0,0,0,0,.5c0,.09,0,.21,0,.38a4.67,4.67,0,0,0,0,.52l-.8,0h-2.28l-.55,0V97.5a1.32,1.32,0,0,0,.36-.06.26.26,0,0,0,.17-.17,1.62,1.62,0,0,0,0-.38V93.42a1.62,1.62,0,0,0,0-.38.29.29,0,0,0-.17-.17,1.06,1.06,0,0,0-.36-.05v-.14h2.76Zm-1.2,2.39v.14h-1.28v-.14Zm.2-.92c0,.26,0,.47,0,.61v.38c0,.12,0,.25,0,.39s0,.34,0,.61h-.16l-.06-.44a.77.77,0,0,0-.17-.35.59.59,0,0,0-.44-.14v-.14a.58.58,0,0,0,.35-.09.43.43,0,0,0,.18-.24,1.09,1.09,0,0,0,.08-.31c0-.1,0-.2,0-.28Z"/><path class="cls-1" d="M154.19,92.68c0,.18,0,.35,0,.51s0,.3,0,.39,0,.21,0,.31,0,.19,0,.26H154a3.79,3.79,0,0,0-.13-.77.64.64,0,0,0-.29-.41,1.24,1.24,0,0,0-.65-.13h-.38v4a1.4,1.4,0,0,0,0,.42.29.29,0,0,0,.21.19,1.93,1.93,0,0,0,.45.07v.14l-.47,0h-1.15l-.45,0V97.5a1.93,1.93,0,0,0,.45-.07.31.31,0,0,0,.21-.19,1.4,1.4,0,0,0,.05-.42v-4h-.38a1.24,1.24,0,0,0-.65.13.69.69,0,0,0-.3.41,4.65,4.65,0,0,0-.13.77h-.16a1.84,1.84,0,0,0,0-.26v-.31c0-.09,0-.22,0-.39s0-.33,0-.51h3.94Z"/></g></g></svg>